<svg width="512" height="516" viewBox="0 0 512 516" fill="none" xmlns="http://www.w3.org/2000/svg">
<g clip-path="url(#clip0_1_19)">
<rect width="512" height="512" rx="48" fill="#F5F1E9"/>
<g filter="url(#filter0_ddd_1_19)">
<path d="M277.208 464.148C272.484 470.275 267.704 475.165 263 478.685C256.997 483.176 251.08 485.454 245.415 485.454C244.421 485.454 243.429 485.381 242.445 485.24C281.056 512.37 331.643 489.014 331.648 458.853C331.651 430.443 300.189 422.629 289.081 442.359L290.43 443.154C290.378 443.259 285.205 453.779 277.208 464.148Z" fill="black"/>
<path d="M224.703 133.541C235.125 102.815 244.284 82.7016 246.059 78.888L246.766 77.3676L248.155 78.3072C248.226 78.3556 248.299 78.4052 248.37 78.4553L249.062 78.9415L248.969 79.7825C248.394 84.9634 245.516 111.481 242.6 148.76C247.904 139.558 254.476 131.55 262.199 124.897C262.528 124.614 262.858 124.335 263.187 124.06C263.233 121.673 263.193 119.173 263.055 116.551C259.677 52.37 280.506 19.7162 280.506 19.7162C280.506 19.7162 228.153 58.5629 220.272 116.551C219.804 119.998 219.559 123.257 219.504 126.332C219.884 126.809 220.26 127.287 220.629 127.77C222.061 129.639 223.423 131.572 224.703 133.541Z" fill="black"/>
<path d="M209.41 184.878C213.513 168.922 218.256 152.848 223.529 137.035C221.949 134.458 220.214 131.928 218.36 129.508L218.073 129.131L218.066 128.658C218.058 128.053 218.06 127.44 218.067 126.824C211.454 118.625 202.906 110.907 192.039 104.166C197.214 116.239 199.415 149.775 200.162 171.142C200.563 171.62 200.962 172.108 201.357 172.604C204.229 176.214 206.929 180.332 209.41 184.878Z" fill="black"/>
<path d="M264.534 126.657L264.064 127.062C255.047 134.831 247.644 144.515 242.055 155.846C240.235 179.963 238.804 203.441 237.794 225.732C242.463 218.455 247.911 212.176 254.042 207.019C259.919 202.075 266.407 198.165 273.325 195.395C273.66 195.261 273.991 195.132 274.32 195.006C282.76 162.716 276.168 125.63 300.123 107.543C300.123 107.543 282.47 110.029 264.601 124.744C264.59 125.178 264.576 125.609 264.559 126.037L264.534 126.657Z" fill="black"/>
<path d="M200.505 232.53C201.738 223.088 203.131 213.711 204.653 204.607L204.66 204.567L204.668 204.528C205.825 199.401 207.067 194.187 208.36 189.021C205.569 183.506 202.463 178.582 199.123 174.383L198.828 174.013L198.813 173.538C198.796 172.978 198.775 172.358 198.752 171.686C182.613 152.758 166.147 154.864 166.147 154.864C174.066 168.478 173.885 190.034 173.03 211.826C173.186 211.886 173.341 211.946 173.496 212.008C183.754 216.071 192.826 222.968 200.505 232.53Z" fill="black"/>
<path d="M193.815 322.784C194.213 295.334 196.34 265.608 199.99 236.534C192.269 226.206 183.003 218.848 172.443 214.665L171.5 214.291L171.541 213.278C171.548 213.119 171.554 212.96 171.56 212.801C154.214 206.449 139.688 210.572 139.688 210.572C139.688 210.572 161.543 223.503 160.414 245.376C158.474 282.96 170.739 300.293 180.587 313.656C181.452 314.063 182.311 314.501 183.164 314.97C186.845 316.995 190.416 319.617 193.815 322.784Z" fill="black"/>
<path d="M193.769 326.728C189.978 322.878 185.95 319.765 181.787 317.474L181.51 317.322L181.323 317.066C180.876 316.456 180.422 315.84 179.961 315.215C179.859 315.077 179.756 314.938 179.654 314.799C161.749 306.561 146.964 314.731 146.964 314.731C146.964 314.731 183.431 341.52 190.718 376.738C193.635 390.837 196.747 401.818 199.913 410.325C197.919 399.699 196.392 387.885 195.359 375.092C194.157 360.192 193.623 343.923 193.769 326.728Z" fill="black"/>
<path d="M275.043 197.787L274.387 198.049C263.87 202.259 248.962 211.514 237.533 231.699C235.839 271.721 235.549 307.474 236.668 338.025C244.746 332.107 258.202 317.91 270.26 284.829L270.879 283.132L272.102 283.937C279.865 262.232 286.986 232.701 291.679 192.556C291.679 192.556 284.919 192.61 275.513 196.085C275.421 196.426 275.328 196.767 275.232 197.107L275.043 197.787Z" fill="black"/>
<path d="M320.236 394.342C314.972 390.491 306.177 388.004 297.829 388.004C287.56 388.004 264.264 391.901 257.36 425.912C271.896 393.994 322.174 409.873 322.174 409.873C323.023 408.175 321.954 399.448 321.375 395.248C321.058 394.972 320.716 394.697 320.351 394.426L320.236 394.342Z" fill="black"/>
<path d="M345.881 375.747C342.038 374.311 328.292 369.626 312.791 369.626C293.696 369.626 271.211 376.777 261.103 406.833C263.535 402.44 266.478 398.662 269.927 395.522C279.345 386.946 290.299 385.145 297.829 385.145C306.882 385.145 316.115 387.785 321.924 392.035L322.405 392.387L322.494 392.976C322.54 393.283 322.62 393.827 322.719 394.536C322.958 394.759 323.183 394.982 323.393 395.207C330.121 398.877 347.507 398.049 347.507 398.049C349.239 396.751 347.443 382.119 346.581 375.837H346.123L345.881 375.747Z" fill="black"/>
<path d="M348.778 344.442L348.43 344.436C347.504 344.421 346.559 344.413 345.62 344.413C324.481 344.413 286.036 348.092 266.07 372.73C255.612 385.634 251.661 402.775 254.274 423.783C257.055 404.231 263.887 389.496 274.645 379.898C284.412 371.186 297.246 366.768 312.791 366.768C328.771 366.768 342.924 371.591 346.881 373.069L347.676 373.366L347.796 374.206C347.805 374.27 347.815 374.338 347.824 374.408H372.276C373.249 363.221 354.511 348.036 349.61 344.016C349.436 344.11 349.263 344.201 349.09 344.287L348.778 344.442Z" fill="black"/>
<path d="M298.835 318.639C298.4 318.758 297.969 318.879 297.538 319.002C297.141 319.116 296.75 319.23 296.361 319.346L296.238 319.383C267.896 327.858 247.49 345.259 237.703 358.878C239.92 393.244 246.208 414.545 251.858 427.181C248.354 403.987 252.375 385.089 263.851 370.929C273.053 359.574 286.952 351.35 305.163 346.486C320.419 342.411 335.585 341.555 345.621 341.555C346.575 341.555 347.536 341.563 348.478 341.578L348.765 342.847C349.076 342.684 349.388 342.509 349.701 342.322C349.641 342.214 349.575 342.13 349.519 342.074C349.557 342.112 349.644 342.188 349.761 342.287C358.758 336.86 368.336 321.831 368.336 321.831C344.593 311.518 320.852 311.415 299.841 316.892L300.233 318.259L298.835 318.639Z" fill="black"/>
<path d="M251.759 433.529L251.756 433.526L251.663 433.348C247.386 425.169 243.786 414.903 240.966 402.834C238.167 390.86 236.195 377.329 235.093 362.562L235.072 362.593L234.827 358.727C234.826 358.704 234.824 358.681 234.823 358.658L234.784 358.049L234.785 358.048C234.491 353.337 234.232 348.359 234.012 343.207L234.007 343.211L233.902 340.508C233.9 340.471 233.899 340.433 233.897 340.396L233.878 339.904L233.879 339.903C232.676 308.803 232.949 272.247 234.691 231.233C234.691 231.231 234.691 231.23 234.691 231.227L234.706 230.892C235.728 206.923 237.249 181.511 239.226 155.353L239.247 155.079C241.569 124.411 243.95 100.174 245.245 87.7253C241.138 97.2285 234.083 114.486 226.449 137.308C220.715 154.454 215.604 171.912 211.26 189.199C209.928 194.497 208.651 199.853 207.463 205.118C205.765 215.273 204.229 225.769 202.897 236.318L202.892 236.356C199.063 266.679 196.899 297.732 196.631 326.162C196.297 361.658 198.918 393.111 204.211 417.121C204.407 418.01 204.587 418.805 204.761 419.551L204.869 420.011C204.954 420.375 205.041 420.737 205.127 421.098L205.251 421.608C205.34 421.973 205.429 422.337 205.52 422.699L205.627 423.128C205.752 423.628 205.88 424.125 206.008 424.619L206.04 424.738C206.158 425.19 206.277 425.64 206.398 426.088L206.521 426.54C206.614 426.882 206.708 427.222 206.802 427.561L206.938 428.046C207.037 428.398 207.138 428.748 207.238 429.096L207.35 429.486C207.488 429.959 207.628 430.429 207.768 430.896L207.83 431.1C207.951 431.498 208.073 431.895 208.196 432.288L208.333 432.727C208.435 433.048 208.537 433.368 208.639 433.686L208.786 434.14C208.897 434.481 209.009 434.821 209.122 435.159L209.235 435.495C209.385 435.941 209.536 436.384 209.69 436.824L209.778 437.074C209.903 437.43 210.028 437.783 210.155 438.134C210.155 438.134 210.527 439.154 210.638 439.451L210.796 439.873C210.92 440.203 211.045 440.53 211.172 440.855L211.281 441.141C211.444 441.557 211.608 441.971 211.774 442.381L211.888 442.661C212.017 442.978 212.146 443.293 212.277 443.605L212.445 444.005C212.563 444.285 212.682 444.562 212.802 444.84L212.969 445.225C213.109 445.545 213.25 445.861 213.391 446.176L213.492 446.401C213.667 446.788 213.844 447.171 214.022 447.551L214.159 447.839C214.293 448.123 214.428 448.405 214.563 448.684L214.747 449.059C214.874 449.317 215.002 449.573 215.13 449.828L215.308 450.18C215.466 450.49 215.625 450.797 215.785 451.101L215.867 451.259C216.054 451.614 216.244 451.966 216.435 452.314L216.593 452.598C216.733 452.851 216.874 453.103 217.016 453.353L217.214 453.697C217.35 453.934 217.487 454.169 217.626 454.403L217.81 454.715C217.991 455.018 218.174 455.318 218.358 455.615L218.407 455.695C218.591 455.992 218.79 456.304 219.013 456.651L219.191 456.923C219.338 457.147 219.486 457.371 219.634 457.591L219.844 457.902C219.991 458.118 220.139 458.331 220.287 458.543L220.478 458.816C220.713 459.146 220.92 459.433 221.112 459.693L221.149 459.742L221.201 459.828L221.957 461.054L222.125 461.323L222.886 462.511L223.024 462.722L223.73 463.784L223.862 463.98L224.642 465.111L224.827 465.373L225.629 466.493L225.682 466.563L226.454 467.603L226.649 467.861L227.445 468.892L227.627 469.123L228.338 470.011L228.501 470.213L229.306 471.181C229.383 471.273 229.46 471.365 229.538 471.456L230.352 472.4L230.492 472.558L231.217 473.368L231.462 473.639L232.266 474.503L232.514 474.765L233.194 475.47L233.409 475.691L234.22 476.501C234.316 476.596 234.413 476.691 234.51 476.785L235.322 477.567L235.549 477.779L236.218 478.398C236.218 478.398 236.442 478.604 236.516 478.671L237.321 479.388C237.392 479.451 237.628 479.656 237.628 479.656L238.281 480.216C238.281 480.216 238.495 480.398 238.549 480.444L239.357 481.111C239.467 481.201 239.578 481.29 239.689 481.38L240.045 481.787C241.796 482.324 243.602 482.596 245.414 482.596C256.95 482.596 267.84 471.615 274.945 462.403C278.098 458.314 280.801 454.205 282.906 450.752L282.413 451.155L282.347 451.189L281.171 451.713C279.087 452.718 276.918 453.227 274.724 453.227C272.258 453.227 269.763 452.585 267.309 451.318L267.285 451.307C267.155 451.244 267.025 451.179 266.896 451.112L266.712 451.015L266.587 450.948C266.544 450.924 266.501 450.9 266.458 450.877L266.232 450.748L266.046 450.639L265.772 450.473L265.704 450.43L264.306 449.445C259.793 446.13 255.572 440.775 251.759 433.529Z" fill="black"/>
<path d="M272.361 287.394C266.606 302.84 259.972 315.688 252.629 325.596C246.344 334.076 240.66 338.843 236.801 341.42C236.983 345.917 237.196 350.293 237.436 354.483C243.1 347.303 250.607 340.344 259.356 334.191C270.261 326.521 282.684 320.468 295.291 316.683L295.321 316.668L295.452 316.635C295.856 316.514 296.262 316.396 296.668 316.278C296.658 316.245 296.647 316.21 296.636 316.176L296.937 316.078C296.913 316.016 296.89 315.954 296.865 315.892L296.575 315.987C296.513 315.798 296.45 315.611 296.387 315.425L296.645 315.337C296.624 315.282 296.602 315.228 296.58 315.174L296.33 315.26C296.252 315.034 296.173 314.809 296.091 314.585L296.305 314.507C296.301 314.498 296.297 314.488 296.293 314.478L296.081 314.555C295.991 314.309 295.9 314.065 295.807 313.823L295.983 313.755C295.977 313.74 295.97 313.725 295.963 313.71L295.789 313.776C295.706 313.561 295.622 313.347 295.536 313.135L295.681 313.076C295.658 313.025 295.634 312.974 295.61 312.923L295.473 312.978C295.4 312.799 295.326 312.621 295.252 312.443L295.367 312.395C295.341 312.34 295.315 312.285 295.288 312.23L295.181 312.276C295.102 312.091 295.022 311.907 294.942 311.724L295.028 311.686C295.009 311.647 294.989 311.607 294.97 311.567L294.889 311.603C294.69 311.155 294.481 310.704 294.268 310.263L294.303 310.246C294.286 310.214 294.27 310.182 294.253 310.149L294.22 310.165C294.131 309.983 294.042 309.801 293.951 309.621L293.968 309.612C293.941 309.562 293.914 309.511 293.887 309.461L293.874 309.468C293.789 309.301 293.703 309.134 293.617 308.969C291.073 304.373 287.917 300.164 284.26 296.45C284.146 296.339 284.033 296.228 283.92 296.118L283.926 296.113C283.892 296.079 283.859 296.046 283.825 296.013L283.818 296.02C283.692 295.899 283.566 295.778 283.439 295.658L283.452 295.644C283.432 295.625 283.413 295.607 283.393 295.588L283.38 295.602C283.084 295.323 282.779 295.043 282.476 294.769L282.503 294.739C282.48 294.717 282.456 294.695 282.432 294.673L282.404 294.705C282.28 294.593 282.155 294.482 282.031 294.373L282.065 294.335C282.031 294.304 281.999 294.274 281.966 294.244L281.93 294.284C281.81 294.178 281.69 294.073 281.57 293.969L281.609 293.924C281.58 293.898 281.552 293.872 281.523 293.847L281.482 293.894C281.339 293.77 281.195 293.648 281.052 293.526L281.098 293.472C281.094 293.469 281.091 293.466 281.087 293.463L281.042 293.517C280.747 293.269 280.44 293.015 280.129 292.763L280.186 292.693C280.161 292.671 280.135 292.649 280.109 292.628L280.051 292.7C279.928 292.6 279.804 292.501 279.68 292.403L279.743 292.325C279.713 292.3 279.683 292.276 279.653 292.252L279.59 292.331C279.462 292.23 279.335 292.13 279.207 292.03L279.274 291.944C279.255 291.928 279.235 291.913 279.215 291.897L279.148 291.984C278.85 291.752 278.544 291.519 278.24 291.292L278.315 291.19C278.308 291.185 278.301 291.179 278.294 291.174L278.218 291.276C278.079 291.172 277.94 291.069 277.801 290.968L277.88 290.86C277.857 290.842 277.832 290.824 277.808 290.805L277.728 290.914C277.603 290.822 277.476 290.731 277.351 290.641L277.433 290.527C277.411 290.51 277.389 290.494 277.366 290.477L277.284 290.592C277.143 290.491 277.002 290.391 276.862 290.291L276.947 290.171C276.944 290.169 276.94 290.166 276.937 290.164L276.852 290.284C276.559 290.078 276.258 289.869 275.957 289.665L276.047 289.533C276.038 289.526 276.029 289.52 276.02 289.513L275.93 289.646C275.795 289.555 275.66 289.464 275.527 289.375L275.618 289.239C275.6 289.227 275.582 289.214 275.565 289.202L275.473 289.339C275.342 289.252 275.21 289.165 275.08 289.08L275.172 288.939C274.732 288.645 274.287 288.356 273.838 288.075L273.743 288.227C273.609 288.143 273.476 288.062 273.344 287.981L273.438 287.826C273.431 287.822 273.423 287.817 273.415 287.812L273.321 287.967C273.004 287.773 272.683 287.582 272.361 287.394Z" fill="black"/>
</g>
</g>
<defs>
<filter id="filter0_ddd_1_19" x="83.6876" y="-18.2838" width="344.625" height="589.501" filterUnits="userSpaceOnUse" color-interpolation-filters="sRGB">
<feFlood flood-opacity="0" result="BackgroundImageFix"/>
<feColorMatrix in="SourceAlpha" type="matrix" values="0 0 0 0 0 0 0 0 0 0 0 0 0 0 0 0 0 0 127 0" result="hardAlpha"/>
<feOffset dy="18"/>
<feGaussianBlur stdDeviation="28"/>
<feColorMatrix type="matrix" values="0 0 0 0 0 0 0 0 0 0 0 0 0 0 0 0 0 0 0.1 0"/>
<feBlend mode="normal" in2="BackgroundImageFix" result="effect1_dropShadow_1_19"/>
<feColorMatrix in="SourceAlpha" type="matrix" values="0 0 0 0 0 0 0 0 0 0 0 0 0 0 0 0 0 0 127 0" result="hardAlpha"/>
<feOffset dy="10"/>
<feGaussianBlur stdDeviation="9"/>
<feColorMatrix type="matrix" values="0 0 0 0 0 0 0 0 0 0 0 0 0 0 0 0 0 0 0.05 0"/>
<feBlend mode="normal" in2="effect1_dropShadow_1_19" result="effect2_dropShadow_1_19"/>
<feColorMatrix in="SourceAlpha" type="matrix" values="0 0 0 0 0 0 0 0 0 0 0 0 0 0 0 0 0 0 127 0" result="hardAlpha"/>
<feOffset dy="4"/>
<feGaussianBlur stdDeviation="3"/>
<feColorMatrix type="matrix" values="0 0 0 0 0 0 0 0 0 0 0 0 0 0 0 0 0 0 0.04 0"/>
<feBlend mode="normal" in2="effect2_dropShadow_1_19" result="effect3_dropShadow_1_19"/>
<feBlend mode="normal" in="SourceGraphic" in2="effect3_dropShadow_1_19" result="shape"/>
</filter>
<clipPath id="clip0_1_19">
<rect width="512" height="516" fill="white"/>
</clipPath>
</defs>
</svg>
